HIERARCHY
ROOT Hips
{
  OFFSET 13.6774 106.653 -34.4427
  CHANNELS 6 Xposition Yposition Zposition Zrotation Xrotation Yrotation
  JOINT ToSpine
  {
    OFFSET -2.69724 7.43032 -0.144315
    CHANNELS 3 Zrotation Xrotation Yrotation
    JOINT Spine
    {
      OFFSET -0.0310711 10.7595 1.96963
      CHANNELS 3 Zrotation Xrotation Yrotation
      JOINT Spine1
      {
        OFFSET 19.9056 3.91189 0.764692
        CHANNELS 3 Zrotation Xrotation Yrotation
        JOINT Neck
        {
          OFFSET 25.9749 7.03908 -0.130764
          CHANNELS 3 Zrotation Xrotation Yrotation
          JOINT Head
          {
            OFFSET 9.52751 0.295786 -0.907742
            CHANNELS 3 Zrotation Xrotation Yrotation
            End Site
            {
              OFFSET 16.4037 0.713936 2.7358
            }
          }
        }
        JOINT LeftShoulder
        {
          OFFSET 17.7449 4.33886 11.7777
          CHANNELS 3 Zrotation Xrotation Yrotation
          JOINT LeftArm
          {
            OFFSET 0.911315 1.27913 9.80584
            CHANNELS 3 Zrotation Xrotation Yrotation
            JOINT LeftForeArm
            {
              OFFSET 28.6126 1.18197 -3.53199
              CHANNELS 3 Zrotation Xrotation Yrotation
              JOINT LeftHand
              {
                OFFSET 27.5088 0.0218783 0.327423
                CHANNELS 3 Zrotation Xrotation Yrotation
                End Site
                {
                  OFFSET 18.6038 -0.000155887 0.382096
                }
              }
            }
          }
        }
        JOINT RightShoulder
        {
          OFFSET 17.1009 2.89543 -12.2328
          CHANNELS 3 Zrotation Xrotation Yrotation
          JOINT RightArm
          {
            OFFSET 1.4228 0.178766 -10.211
            CHANNELS 3 Zrotation Xrotation Yrotation
            JOINT RightForeArm
            {
              OFFSET 28.733 1.87905 2.64907
              CHANNELS 3 Zrotation Xrotation Yrotation
              JOINT RightHand
              {
                OFFSET 27.4588 0.290562 -0.101845
                CHANNELS 3 Zrotation Xrotation Yrotation
                End Site
                {
                  OFFSET 17.8396 -0.255518 -0.000602873
                }
              }
            }
          }
        }
      }
    }
  }
  JOINT LeftUpLeg
  {
    OFFSET -5.61296 -2.22332 -10.2353
    CHANNELS 3 Zrotation Xrotation Yrotation
    JOINT LeftLeg
    {
      OFFSET 2.56703 -44.7417 -7.93097
      CHANNELS 3 Zrotation Xrotation Yrotation
      JOINT LeftFoot
      {
        OFFSET 3.16933 -46.5642 -3.96578
        CHANNELS 3 Zrotation Xrotation Yrotation
        JOINT LeftToeBase
        {
          OFFSET 0.346054 -6.02161 12.8035
          CHANNELS 3 Zrotation Xrotation Yrotation
          End Site
          {
            OFFSET 0.134235 -1.35082 5.13018
          }
        }
      }
    }
  }
  JOINT RightUpLeg
  {
    OFFSET -5.7928 -1.72406 10.6446
    CHANNELS 3 Zrotation Xrotation Yrotation
    JOINT RightLeg
    {
      OFFSET -2.57161 -44.7178 -7.85259
      CHANNELS 3 Zrotation Xrotation Yrotation
      JOINT RightFoot
      {
        OFFSET -3.10148 -46.5936 -4.03391
        CHANNELS 3 Zrotation Xrotation Yrotation
        JOINT RightToeBase
        {
          OFFSET -0.0828122 -6.13587 12.8035
          CHANNELS 3 Zrotation Xrotation Yrotation
          End Site
          {
            OFFSET -0.131328 -1.35082 5.13018
          }
        }
      }
    }
  }
}
MOTION
Frames: 19
Frame Time: 0.03333333333333333
0.0000 93.1000 0.0000 70.3886 -25.8837 -1.8215 -70.7681 -0.0378 88.2716 114.0527 71.2430 -36.9414 5.8994 21.7960 2.6199 -113.0468 27.8247 155.7461 146.6128 65.9412 -108.0682 0.5091 -10.8403 -12.1782 -67.8217 34.1704 -148.1589 30.1743 -5.4309 -97.8769 0.0871 -0.4113 0.1821 -3.1500 7.0766 44.5949 -127.8952 1.9271 75.6052 4.3689 -4.2905 52.2497 -0.0782 0.5295 0.1058 -21.3448 23.2777 86.6546 -10.1490 64.8719 -10.7600 -0.5609 -11.8585 -1.0885 2.8706 -9.5884 10.7022 -27.9571 -16.2336 80.6520 2.9118 52.0244 3.7772 -3.1829 3.0335 -0.3394 1.2932 -15.4925 -3.2985 
0.0000 93.1000 0.0000 69.4454 -25.3609 -1.4582 -70.7298 0.0399 88.2592 113.8281 71.4873 -36.4455 5.5536 21.8769 2.8814 -112.0017 27.3730 155.7441 148.2668 66.5051 -110.1178 0.7691 -11.4491 -12.4664 -66.8498 34.5442 -146.3782 29.2356 -5.1541 -98.4846 -0.0151 -0.2277 0.0628 -2.9489 7.1450 44.3911 -127.5421 1.6302 74.8370 5.0043 -4.9129 51.3310 -0.2171 0.4958 0.2931 -21.3970 22.7648 85.5202 -10.0385 64.8002 -11.3089 -1.0781 -11.1567 -1.2281 3.1033 -10.0211 10.8506 -29.3310 -16.3703 79.1564 3.0481 51.2921 4.8083 -4.1631 2.1144 -0.1355 1.8383 -16.3198 -3.9461 
0.0000 93.1000 0.0000 68.8636 -25.4419 -0.6153 -70.6811 -0.0253 88.2812 113.9776 71.5141 -35.0147 4.9605 21.9572 2.6947 -112.2811 27.6234 155.4881 147.8311 66.5606 -109.7670 0.6877 -11.1477 -12.7728 -65.7309 35.0313 -146.1741 28.5597 -5.2486 -98.8812 -0.0993 -0.2451 0.0959 -3.0372 6.7985 44.3237 -127.8062 0.8664 74.2917 4.8478 -5.1234 51.3651 -0.2902 0.3856 0.2716 -21.8624 22.6130 85.0025 -10.0114 65.2322 -11.2068 -1.2426 -12.8315 -1.5362 2.8248 -9.6670 10.9736 -30.2458 -16.9125 77.5488 2.9637 50.8393 3.1586 -4.2559 1.0389 -0.2473 1.6951 -15.2291 -2.5700 
0.0000 93.1000 0.0000 68.6607 -25.8513 -0.7786 -70.5983 -0.1434 88.3155 113.8615 71.6799 -35.4047 4.5568 22.3192 2.6684 -113.2403 28.0140 155.1969 145.5395 66.7585 -108.5437 0.9318 -11.1132 -13.2173 -65.7262 35.0818 -146.1046 28.3874 -5.4407 -99.5197 -0.1842 0.0158 -0.1754 -2.9888 6.9304 43.8763 -128.1514 0.1620 74.4272 5.5270 -5.0297 51.2601 -0.0807 0.1563 -0.0736 -22.3803 22.4821 84.7618 -9.7617 65.3639 -11.5085 -0.9039 -14.1326 -1.8727 3.0754 -9.5394 11.1784 -30.5799 -17.2438 76.5363 2.5754 50.9849 1.7615 -4.6230 0.5493 0.0725 1.3160 -14.6742 -0.9675 
0.0000 93.1000 0.0000 67.6720 -25.4267 -1.7465 -70.5610 -0.2729 88.3134 113.6023 71.8631 -34.4682 4.2768 22.6876 1.9265 -113.2792 28.2113 154.6621 144.3425 67.2439 -108.6758 0.5617 -11.0039 -13.1020 -66.0988 35.1812 -146.0498 27.2953 -4.9679 -99.5581 -0.0749 -0.3400 0.4397 -2.8902 6.9728 43.3349 -128.0122 -0.0575 74.7144 5.7753 -5.6012 51.4484 -0.3432 0.8820 0.5278 -22.3490 22.5126 85.1985 -10.0311 65.7474 -10.1664 -0.8514 -14.7684 -1.7490 3.0899 -10.0266 11.0066 -30.0819 -17.4435 76.5575 2.8673 51.3891 1.5647 -4.4763 -0.7562 -0.2530 1.0205 -13.3808 1.5299 
0.0000 93.1000 0.0000 67.7546 -25.3597 -1.7708 -70.6283 -0.0346 88.3068 113.4712 71.8317 -34.4683 3.9502 22.6727 1.8424 -112.9606 28.4071 154.7307 146.3668 67.2197 -108.6357 0.6811 -11.1784 -13.2323 -66.4246 34.8925 -146.2385 27.5703 -5.1391 -99.5260 -0.3516 -0.3661 0.1035 -2.9797 7.0765 43.0899 -127.8916 -0.7895 74.6768 5.6670 -5.7818 51.6692 -0.2365 0.6098 0.3861 -22.8780 22.4408 85.6232 -9.9079 65.2924 -11.2798 -0.6859 -15.3321 -1.8851 3.6334 -11.3515 12.0569 -30.2114 -17.6841 77.1906 1.9861 51.2372 1.8930 -4.4914 -1.6487 -0.1361 0.6161 -13.8054 2.1560 
0.0000 93.1000 0.0000 67.8490 -25.8902 -2.5457 -70.7266 -0.0826 88.2250 113.2720 72.0831 -33.8709 4.1687 22.4347 1.8671 -113.0938 28.1719 154.6298 148.4776 67.0140 -108.8753 0.4740 -10.8937 -13.3642 -66.6306 34.6918 -146.2449 27.1559 -5.3161 -99.6001 -0.1364 -0.6802 0.4383 -3.0066 6.9878 42.8476 -127.0248 -1.0851 75.3734 6.1034 -6.1159 51.4699 -0.1895 0.9791 0.6997 -23.3060 22.6213 85.9727 -10.0039 65.0789 -12.2830 -1.1085 -15.0504 -1.7045 4.1424 -12.9881 12.8641 -29.7316 -17.8144 77.2186 2.4395 51.2555 2.7270 -4.3461 -1.9436 -0.4250 1.2041 -14.7838 1.4621 
0.0000 93.1000 0.0000 67.9472 -26.2028 -2.4223 -70.7213 -0.1427 88.3295 113.2618 71.3663 -33.2764 3.9878 22.0868 2.0106 -114.0050 28.7814 155.6765 146.5537 66.5844 -109.3265 0.4917 -10.5765 -13.2326 -67.2432 34.8746 -146.9661 26.7506 -5.5110 -99.2594 0.1902 -0.6131 0.4132 -3.0224 6.9108 42.0329 -127.0122 -1.6317 75.4911 6.4046 -6.1297 52.1041 -0.1413 0.9301 0.6586 -23.7320 22.7757 86.8223 -10.0982 65.0812 -12.3379 -1.3333 -15.2138 -1.6822 4.4135 -13.6108 12.1821 -29.8011 -17.5453 77.2256 2.5939 51.0386 1.8680 -3.7570 -2.4401 -0.3882 1.2337 -14.7044 2.0262 
0.0000 93.1000 0.0000 68.2645 -26.4072 -2.7394 -70.7167 -0.2332 88.2280 111.3282 71.7166 -32.2848 3.9799 22.1010 1.7400 -113.7689 28.7844 155.9951 144.9733 66.1814 -107.3550 0.3749 -10.6582 -12.8548 -67.9991 34.8232 -146.9856 27.2430 -5.7392 -99.2890 0.1810 -0.5717 0.3560 -3.0321 6.8772 41.2241 -127.7828 -2.2568 75.6086 5.9138 -5.8603 52.0931 -0.4157 0.7281 0.4453 -24.4117 23.0036 86.9298 -10.0862 65.3138 -12.0341 -1.7152 -16.3212 -1.5441 4.2106 -13.3174 12.1174 -29.8735 -17.8928 77.3060 2.4727 51.1569 2.9551 -4.1782 -1.9786 -0.3484 1.1943 -16.1776 1.3432 
0.0000 93.1000 0.0000 66.5385 -26.6902 -3.9632 -70.7383 -0.0906 88.3489 110.2633 72.0655 -30.4372 4.5452 21.9897 1.6194 -114.3229 28.9500 155.7096 143.5160 66.1485 -107.7589 0.6260 -10.3913 -13.1550 -67.9410 35.1563 -147.2437 27.6708 -5.5984 -99.3168 0.0991 -0.2462 0.2180 -2.8528 7.1726 41.2246 -128.0535 -1.5074 75.7680 5.7292 -5.8082 52.2517 -0.3504 0.4594 0.1791 -24.9389 22.4171 87.6601 -10.4249 65.0145 -12.1776 -2.0204 -17.3670 -1.6599 4.1883 -12.6340 11.4252 -30.0956 -18.0355 79.1113 3.1396 50.7190 2.8184 -2.8537 -1.9291 -0.0943 1.1129 -15.8536 -1.1880 
0.0000 93.1000 0.0000 66.9676 -27.0903 -3.8534 -70.7310 -0.0454 88.2639 109.3599 72.0701 -29.9881 4.3716 22.1420 1.9104 -114.9266 29.1199 156.7256 143.8470 66.2507 -107.4296 0.7208 -10.5728 -12.7482 -67.6026 35.0859 -148.1120 27.4847 -5.2217 -99.4949 -0.0014 -0.2025 0.1163 -2.8464 7.1127 41.2079 -127.3899 -1.4244 76.5704 5.9939 -5.4796 52.3261 -0.1305 0.3002 0.0110 -25.0607 22.6017 87.7683 -10.0169 65.1498 -11.8341 -1.8862 -17.9600 -1.8877 3.6711 -11.1429 10.6748 -30.0071 -18.0180 79.4387 2.6601 50.7134 2.9999 -2.2470 -3.0963 -0.0498 1.1839 -14.8643 -2.0448 
0.0000 93.1000 0.0000 66.9258 -26.7486 -3.9168 -70.7014 0.1545 88.3418 109.1500 71.2521 -29.2994 4.7343 21.8979 1.5347 -114.9595 28.9545 155.5889 144.8280 66.6094 -107.6387 0.6770 -10.4045 -12.6236 -67.2447 34.9210 -147.9441 28.1631 -5.3694 -99.6439 -0.0471 -0.0546 0.0039 -2.6579 7.2691 41.9116 -127.7895 -1.0926 76.5359 5.8019 -5.2313 52.2933 0.0224 0.0423 -0.0786 -24.9167 22.6587 87.6402 -10.2489 64.8485 -12.4124 -1.5828 -18.8480 -2.0835 3.9676 -11.8743 12.2655 -29.7957 -18.4004 79.3636 2.5845 49.7762 3.9037 -2.9808 -2.0977 -0.0256 1.0332 -15.5843 -1.9845 
0.0000 93.1000 0.0000 66.0550 -27.0234 -5.2184 -70.7358 0.1967 88.3753 109.2433 71.0889 -29.0196 4.6452 22.0465 1.4340 -114.9482 28.8174 156.8850 144.5508 66.8483 -108.1986 0.5680 -10.2309 -12.6251 -67.6288 35.2519 -147.8417 28.2304 -4.9429 -99.4515 0.0476 -0.1889 0.0918 -2.6649 6.8320 42.2418 -127.7967 -1.2231 76.6095 5.9468 -4.9553 53.2416 0.0574 0.4352 0.3250 -24.7450 22.2860 87.5901 -9.8694 65.2886 -12.1553 -1.2818 -19.3860 -2.2549 3.7143 -11.5975 11.5369 -29.8748 -17.9767 79.9043 3.0706 49.8103 2.5053 -1.6608 -2.7447 -0.4229 1.3066 -14.4436 -1.7590 
0.0000 93.1000 0.0000 65.9101 -27.0114 -5.3092 -70.6851 0.0528 88.2031 108.1616 71.1205 -28.2135 4.6445 22.2151 1.1224 -115.0995 28.9400 156.5373 144.3878 67.0000 -107.5021 0.4867 -10.0299 -12.4094 -66.7446 35.7258 -147.8626 28.0993 -5.4355 -99.4449 -0.0025 -0.2143 0.0991 -2.8047 6.9657 41.8090 -127.8595 -1.3723 76.6956 6.7170 -5.8878 53.4026 -0.2169 0.3447 0.3257 -24.9282 21.8710 87.8047 -10.2329 65.5444 -11.7413 -1.2078 -19.0668 -2.0959 3.6708 -11.1042 11.7939 -29.7947 -17.7466 80.2410 2.8828 49.5135 2.9235 -1.7203 -3.1546 -0.4505 1.4449 -14.0094 -1.8035 
0.0000 93.1000 0.0000 66.0270 -26.7390 -4.9284 -70.7025 0.0057 88.2562 107.9784 70.9154 -28.1472 4.5732 21.8370 1.2670 -115.8658 28.8821 156.5419 145.8938 67.2367 -108.7833 0.4303 -10.0658 -12.2943 -66.6810 35.8842 -148.1250 28.1856 -5.5103 -99.7252 0.0887 -0.2769 0.4379 -2.9268 6.9975 41.9552 -127.9494 -1.3289 76.0780 7.3359 -6.0477 54.2954 -0.1821 0.7592 0.4612 -25.0561 21.7308 87.6242 -10.2358 65.0787 -11.9586 -1.0823 -19.4317 -1.8908 3.3390 -10.9631 11.8498 -29.9305 -17.0475 80.2057 2.6706 48.9180 1.7425 -1.8516 -3.5948 -0.3540 1.3811 -13.9045 0.1701 
0.0000 93.1000 0.0000 65.9854 -26.7160 -4.8892 -70.7419 -0.0704 88.2099 108.3750 70.8695 -28.0144 4.1300 21.9082 1.5458 -115.1978 29.0975 156.4152 145.6270 66.8189 -109.0092 0.4841 -9.6170 -12.7208 -67.5410 36.1478 -147.8584 28.3730 -5.3338 -99.4818 -0.0346 -0.2694 0.0212 -2.8826 7.1249 41.5146 -127.7698 -1.2831 76.1757 6.8310 -5.7500 54.4307 -0.0440 0.1294 0.1690 -24.9012 21.7794 87.9194 -10.2823 65.5172 -11.2855 -1.1452 -19.5913 -1.5594 3.3863 -11.1164 12.2552 -30.1709 -17.0869 80.0161 1.9450 48.2226 2.3439 -1.8399 -3.1647 -0.1510 0.9534 -13.4270 0.7820 
0.0000 93.1000 0.0000 66.0495 -26.6519 -5.1290 -70.8034 -0.2141 88.1795 109.1909 70.9197 -27.8538 4.2632 21.9983 1.7027 -115.0434 29.5584 156.8963 145.0257 66.5873 -108.8177 0.7792 -9.6424 -12.6981 -67.6589 36.3015 -147.8077 28.1591 -5.4437 -99.2670 0.1337 -0.1582 -0.1485 -2.9966 7.0072 40.9961 -128.0564 -1.9138 75.4077 7.0013 -6.0947 54.1450 -0.0706 -0.2256 -0.2491 -24.1791 21.5077 87.8268 -10.2272 66.5237 -11.0733 -0.9189 -19.1938 -1.8785 3.1760 -11.0668 12.7990 -30.0299 -17.4504 80.1295 1.9803 47.9254 1.7146 -1.4802 -2.9488 -0.0644 0.6047 -12.7147 1.2162 
0.0000 93.1000 0.0000 65.9907 -27.0065 -5.7128 -70.8195 -0.1933 88.1386 109.1466 70.9126 -28.1285 3.9754 22.0577 1.4488 -115.0780 29.2249 156.4930 145.3649 67.1117 -109.8127 0.6040 -9.4962 -12.2153 -66.9106 36.2207 -147.7271 27.7562 -5.3891 -99.3604 0.0167 -0.1346 0.0726 -2.8635 6.8789 40.7424 -127.8467 -1.6776 76.1270 7.0742 -6.0687 54.4929 -0.1761 0.1514 0.0952 -23.8880 21.7282 87.8350 -9.7032 65.9678 -10.1091 -1.2286 -18.5267 -1.8031 2.7298 -11.0718 12.2187 -29.5603 -17.1588 80.8631 2.0912 48.1938 1.8215 -0.8378 -2.9196 -0.2670 1.4327 -12.8771 -0.9716 
0.0000 93.1000 0.0000 66.1799 -27.8559 -5.3608 -70.8240 0.0402 88.1461 109.1429 71.0428 -28.1624 3.8216 21.8138 1.3343 -115.0951 29.0315 155.7580 146.3775 67.1758 -110.3566 1.2555 -9.6111 -12.1173 -66.8319 35.8835 -148.6823 28.3021 -5.4011 -98.4876 -0.3629 0.3486 -0.4798 -2.7818 6.9618 40.9525 -127.8166 -1.0976 75.5610 6.8865 -5.8045 55.3872 0.2567 -0.8024 -0.5460 -23.8139 21.8379 88.5975 -9.9057 66.1529 -10.0090 -0.6344 -19.0396 -2.2126 3.7031 -11.6360 12.5875 -29.7322 -16.8737 81.9234 1.9524 47.2451 1.7725 -0.8689 -3.4906 0.1101 0.6799 -11.8874 0.0580 
